<?xml version="1.0" encoding="UTF-8" standalone="no"?>
<svg
   class="ionicon"
   viewBox="0 0 480.00183 384"
   version="1.1"
   id="svg8"
   sodipodi:docname="tracer-open.svg"
   width="480.00183"
   height="384"
   inkscape:version="1.1 (c4e8f9ed74, 2021-05-24)"
   xmlns:inkscape="http://www.inkscape.org/namespaces/inkscape"
   xmlns:sodipodi="http://sodipodi.sourceforge.net/DTD/sodipodi-0.dtd"
   xmlns="http://www.w3.org/2000/svg"
   xmlns:svg="http://www.w3.org/2000/svg"
   xmlns:rdf="http://www.w3.org/1999/02/22-rdf-syntax-ns#"
   xmlns:cc="http://creativecommons.org/ns#"
   xmlns:dc="http://purl.org/dc/elements/1.1/">
  <defs
     id="defs12" />
  <sodipodi:namedview
     id="namedview10"
     pagecolor="#ffffff"
     bordercolor="#666666"
     borderopacity="1.0"
     inkscape:pageshadow="2"
     inkscape:pageopacity="0.0"
     inkscape:pagecheckerboard="0"
     showgrid="false"
     fit-margin-top="0"
     fit-margin-left="0"
     fit-margin-right="0"
     fit-margin-bottom="0"
     inkscape:zoom="1.5800781"
     inkscape:cx="239.86156"
     inkscape:cy="192.07911"
     inkscape:window-width="2560"
     inkscape:window-height="1377"
     inkscape:window-x="0"
     inkscape:window-y="0"
     inkscape:window-maximized="1"
     inkscape:current-layer="svg8" />
  <title
     id="title2">Folder Open</title>
  <path
     d="M 48.000905,128 V 56 a 40,40 0 0 1 40,-40 H 163.8909 a 40,40 0 0 1 22.19,6.72 l 27.84,18.56 a 40,40 0 0 0 22.19,6.72 h 155.89 a 40,40 0 0 1 40,40 v 40"
     fill="none"
     stroke="currentColor"
     stroke-linecap="round"
     stroke-linejoin="round"
     stroke-width="32"
     id="path4" />
  <path
     d="M 463.9009,162.55 447.6809,328 a 40,40 0 0 1 -39.93,40 H 72.250905 a 40,40 0 0 1 -39.93,-40 l -16.22,-165.45 a 32,32 0 0 1 31.9,-34.55 H 432.1009 a 32,32 0 0 1 31.8,34.55 z"
     fill="none"
     stroke="currentColor"
     stroke-linecap="round"
     stroke-linejoin="round"
     stroke-width="32"
     id="path6" />
  <metadata
     id="metadata829">
    <rdf:RDF>
      <cc:Work
         rdf:about="">
        <dc:title>Folder Open</dc:title>
      </cc:Work>
    </rdf:RDF>
  </metadata>
</svg>
