<?xml version="1.0" encoding="UTF-8" standalone="no"?>
<svg
   class="ionicon"
   viewBox="0 0 472 568"
   version="1.1"
   id="svg8"
   sodipodi:docname="tracer-view-aggregate.svg"
   width="472"
   height="568"
   inkscape:version="1.1 (c4e8f9ed74, 2021-05-24)"
   xmlns:inkscape="http://www.inkscape.org/namespaces/inkscape"
   xmlns:sodipodi="http://sodipodi.sourceforge.net/DTD/sodipodi-0.dtd"
   xmlns="http://www.w3.org/2000/svg"
   xmlns:svg="http://www.w3.org/2000/svg"
   xmlns:rdf="http://www.w3.org/1999/02/22-rdf-syntax-ns#"
   xmlns:cc="http://creativecommons.org/ns#"
   xmlns:dc="http://purl.org/dc/elements/1.1/">
  <defs
     id="defs12" />
  <sodipodi:namedview
     id="namedview10"
     pagecolor="#ffffff"
     bordercolor="#666666"
     borderopacity="1.0"
     inkscape:pageshadow="2"
     inkscape:pageopacity="0.0"
     inkscape:pagecheckerboard="0"
     showgrid="false"
     fit-margin-top="0"
     fit-margin-left="0"
     fit-margin-right="0"
     fit-margin-bottom="0"
     inkscape:zoom="0.79003905"
     inkscape:cx="151.89123"
     inkscape:cy="305.68109"
     inkscape:window-width="2560"
     inkscape:window-height="1377"
     inkscape:window-x="0"
     inkscape:window-y="0"
     inkscape:window-maximized="1"
     inkscape:current-layer="svg8" />
  <title
     id="title2">Reader</title>
  <path
     id="rect4-3"
     style="color:#000000;fill:currentColor;stroke-linejoin:round;-inkscape-stroke:none"
     d="M 124,60 C 88.820791,60 60,88.820791 60,124 v 12.19922 C 61.321817,136.09088 62.649308,136 64,136 h 28 v -12 c 0,-18.00474 13.99526,-32 32,-32 h 224 c 18.00474,0 32,13.99526 32,32 v 320 c 0,18.00474 -13.99526,32 -32,32 h -12 v 28 c 0,1.35069 -0.0909,2.67818 -0.19922,4 H 348 c 35.17921,0 64,-28.82079 64,-64 V 124 C 412,88.820791 383.17921,60 348,60 Z" />
  <path
     fill="none"
     stroke="currentColor"
     stroke-linecap="round"
     stroke-linejoin="round"
     stroke-width="32"
     d="M 96,216 H 256 M 96,296 H 256 M 96,376 h 80"
     id="path6" />
  <metadata
     id="metadata829">
    <rdf:RDF>
      <cc:Work
         rdf:about="">
        <dc:title>Reader</dc:title>
      </cc:Work>
    </rdf:RDF>
  </metadata>
  <rect
     x="16"
     y="136"
     width="320"
     height="416"
     rx="48"
     ry="48"
     fill="none"
     stroke="currentColor"
     stroke-linejoin="round"
     stroke-width="32"
     id="rect4-6" />
  <path
     id="rect4-3-5"
     style="color:#000000;fill:currentColor;stroke-linejoin:round;-inkscape-stroke:none"
     d="M 184,0 C 148.82079,0 120,28.82079 120,64 V 76.19922 C 121.32182,76.09088 122.64931,76 124,76 h 28 V 64 c 0,-18.00474 13.99526,-32 32,-32 h 224 c 18.00474,0 32,13.99526 32,32 v 320 c 0,18.00474 -13.99526,32 -32,32 h -12 v 28 c 0,1.35069 -0.0909,2.67818 -0.19922,4 H 408 c 35.17921,0 64,-28.82079 64,-64 V 64 C 472,28.82079 443.17921,0 408,0 Z" />
</svg>
